# WaveFront *.obj file (generated by Autodesk ATF)

mtllib Z bucket no holes.mtl

g Solid2

v -3.175000 50.734506 -279.596291
v -3.175000 50.734506 -79.596291
v -3.175000 51.682296 -293.331642
v -3.175000 53.909507 -79.596291
v -3.175000 54.507704 -306.806641
v -3.175000 59.157171 -319.765835
v -3.175000 65.542564 -331.963577
v -3.175000 73.542838 -343.168678
v -3.175000 83.006344 -353.168678
v -3.175000 93.753700 -361.774063
v -3.175000 105.581169 -368.821716
v -3.175000 118.264561 -374.178009
v -3.175000 131.563444 -377.741432
v -3.175000 145.225725 -379.444427
v -3.175000 158.992443 -379.254723
v -3.175000 172.602615 -377.175941
v -3.175000 185.798264 -373.247414
v -3.175000 198.329239 -367.543678
v -3.175000 209.958038 -360.172806
v -3.175000 220.464191 -351.274529
v -3.175000 229.648552 -341.017570
v -3.175000 237.337055 -329.596291
v -3.175000 274.587421 -258.726749
v -3.175000 277.337055 -260.314255
v 0.000000 53.909507 -279.596291
v 0.000000 53.909507 -79.596291
v 0.000000 54.827204 -292.895546
v 0.000000 57.562904 -305.942707
v 0.000000 62.064753 -318.490448
v 0.000000 68.247409 -330.300903
v 0.000000 75.993676 -341.150246
v 0.000000 85.156717 -350.832748
v 0.000000 95.562840 -359.164925
v 0.000000 107.014790 -365.988808
v 0.000000 119.295483 -371.175041
v 0.000000 132.172127 -374.625320
v 0.000000 145.400629 -376.274261
v 0.000000 158.730249 -376.090584
v 0.000000 171.908302 -374.077759
v 0.000000 184.684982 -370.273972
v 0.000000 196.818104 -364.751320
v 0.000000 208.077679 -357.614479
v 0.000000 218.250275 -348.998756
v 0.000000 227.143040 -339.067421
v 0.000000 234.587421 -328.008804
v 0.000000 274.587421 -258.726749
v 300.000000 53.909507 -279.596291
v 300.000000 53.909507 -79.596291
v 300.000000 54.827204 -292.895546
v 300.000000 57.562904 -305.942707
v 300.000000 62.064753 -318.490448
v 300.000000 68.247409 -330.300903
v 300.000000 75.993676 -341.150246
v 300.000000 85.156717 -350.832748
v 300.000000 95.562840 -359.164925
v 300.000000 107.014790 -365.988808
v 300.000000 119.295483 -371.175041
v 300.000000 132.172127 -374.625320
v 300.000000 145.400629 -376.274261
v 300.000000 158.730249 -376.090584
v 300.000000 171.908302 -374.077759
v 300.000000 184.684982 -370.273972
v 300.000000 196.818104 -364.751320
v 300.000000 208.077679 -357.614479
v 300.000000 218.250275 -348.998756
v 300.000000 227.143040 -339.067421
v 300.000000 234.587421 -328.008804
v 300.000000 274.587421 -258.726749
v 303.174992 50.734506 -279.596291
v 303.174992 50.734506 -79.596291
v 303.174992 51.682296 -293.331642
v 303.174992 53.909507 -79.596291
v 303.174992 54.507704 -306.806641
v 303.174992 59.157171 -319.765835
v 303.174992 65.542564 -331.963577
v 303.174992 73.542838 -343.168678
v 303.174992 83.006344 -353.168678
v 303.174992 93.753700 -361.774063
v 303.174992 105.581169 -368.821716
v 303.174992 118.264561 -374.178009
v 303.174992 131.563444 -377.741432
v 303.174992 145.225725 -379.444427
v 303.174992 158.992443 -379.254723
v 303.174992 172.602615 -377.175941
v 303.174992 185.798264 -373.247414
v 303.174992 198.329239 -367.543678
v 303.174992 209.958038 -360.172806
v 303.174992 220.464191 -351.274529
v 303.174992 229.648552 -341.017570
v 303.174992 237.337055 -329.596291
v 303.174992 274.587421 -258.726749
v 303.174992 277.337055 -260.314255
vt 0.000000 0.000000 0.000000
vt 28.422960 0.000000 0.000000
vt 28.422960 0.317500 0.000000
vt 0.000000 0.317500 0.000000
vt 15.193342 -8.527166 0.000000
vt 15.193342 -8.209666 0.000000
vt -2.719704 13.858125 0.000000
vt -2.878454 14.133088 0.000000
vt -9.806658 10.133088 0.000000
vt -10.948785 9.364239 0.000000
vt -11.974483 8.445802 0.000000
vt -12.864308 7.395186 0.000000
vt -13.601395 6.232308 0.000000
vt -14.171770 4.979209 0.000000
vt -14.564621 3.659645 0.000000
vt -14.772503 2.298627 0.000000
vt -14.791472 0.921956 0.000000
vt -14.621173 -0.444272 0.000000
vt -14.264830 -1.774161 0.000000
vt -13.729200 -3.042500 0.000000
vt -13.024436 -4.225246 0.000000
vt -12.163897 -5.299982 0.000000
vt -11.163895 -6.246333 0.000000
vt -10.043386 -7.046360 0.000000
vt -8.823612 -7.684899 0.000000
vt -7.527692 -8.149846 0.000000
vt -6.180193 -8.432386 0.000000
vt -4.806657 -8.527166 0.000000
vt 9.647907 9.858125 0.000000
vt 2.719704 13.858125 0.000000
vt -15.193342 -8.209666 0.000000
vt 4.806657 -8.209666 0.000000
vt 6.136583 -8.117896 0.000000
vt 7.441299 -7.844326 0.000000
vt 8.696074 -7.394141 0.000000
vt 9.877121 -6.775876 0.000000
vt 10.962052 -6.001249 0.000000
vt 11.930305 -5.084945 0.000000
vt 12.763521 -4.044333 0.000000
vt 13.445910 -2.899138 0.000000
vt 13.964533 -1.671069 0.000000
vt 14.309562 -0.383404 0.000000
vt 14.474455 0.939447 0.000000
vt 14.456087 2.272408 0.000000
vt 14.254806 3.590214 0.000000
vt 13.874428 4.867882 0.000000
vt 13.322162 6.081195 0.000000
vt 12.608479 7.207152 0.000000
vt 11.746904 8.224410 0.000000
vt 10.753772 9.113687 0.000000
vt 0.000000 0.000000 0.000000
vt 28.422960 0.000000 0.000000
vt 28.422960 0.317500 0.000000
vt 0.000000 0.317500 0.000000
vt -15.193342 -8.527166 0.000000
vt 4.806657 -8.527166 0.000000
vt 6.180193 -8.432386 0.000000
vt 7.527692 -8.149846 0.000000
vt 8.823612 -7.684899 0.000000
vt 10.043386 -7.046360 0.000000
vt 11.163895 -6.246333 0.000000
vt 12.163897 -5.299982 0.000000
vt 13.024436 -4.225246 0.000000
vt 13.729200 -3.042500 0.000000
vt 14.264830 -1.774161 0.000000
vt 14.621173 -0.444272 0.000000
vt 14.791472 0.921956 0.000000
vt 14.772503 2.298627 0.000000
vt 14.564621 3.659645 0.000000
vt 14.171770 4.979209 0.000000
vt 13.601395 6.232308 0.000000
vt 12.864308 7.395186 0.000000
vt 11.974483 8.445802 0.000000
vt 10.948785 9.364239 0.000000
vt 9.806658 10.133088 0.000000
vt 2.878454 14.133088 0.000000
vt 2.719704 13.858125 0.000000
vt -15.193342 -8.209666 0.000000
vt -4.806657 -8.209666 0.000000
vt 15.193342 -8.209666 0.000000
vt -2.719704 13.858125 0.000000
vt -9.647907 9.858125 0.000000
vt -10.753772 9.113687 0.000000
vt -11.746904 8.224410 0.000000
vt -12.608479 7.207152 0.000000
vt -13.322162 6.081195 0.000000
vt -13.874428 4.867882 0.000000
vt -14.254806 3.590214 0.000000
vt -14.456087 2.272408 0.000000
vt -14.474455 0.939447 0.000000
vt -14.309562 -0.383404 0.000000
vt -13.964533 -1.671069 0.000000
vt -13.445910 -2.899138 0.000000
vt -12.763521 -4.044333 0.000000
vt -11.930305 -5.084945 0.000000
vt -10.962052 -6.001249 0.000000
vt -9.877121 -6.775876 0.000000
vt -8.696074 -7.394141 0.000000
vt -7.441299 -7.844326 0.000000
vt -6.136583 -8.117896 0.000000
vt 0.317500 -0.317500 0.000000
vt 0.317500 30.317499 0.000000
vt 0.000000 30.317499 0.000000
vt 0.000000 30.000000 0.000000
vt 0.000000 0.000000 0.000000
vt 0.000000 -0.317500 0.000000
vt 0.000000 0.000000 0.000000
vt 20.000000 0.000000 0.000000
vt 20.000000 30.000000 0.000000
vt 0.000000 30.000000 0.000000
vt 0.000000 -5.069745 0.000000
vt 0.000000 -6.403888 0.000000
vt 0.000000 -7.738032 0.000000
vt 0.000000 -9.072176 0.000000
vt 0.000000 -10.406320 0.000000
vt 0.000000 -11.740462 0.000000
vt 0.000000 -13.074606 0.000000
vt 0.000000 -14.408749 0.000000
vt 0.000000 -15.742892 0.000000
vt 0.000000 -17.077036 0.000000
vt 0.000000 -18.411180 0.000000
vt 0.000000 -19.745323 0.000000
vt 0.000000 -21.079468 0.000000
vt 0.000000 -22.413610 0.000000
vt 0.000000 -23.747753 0.000000
vt 0.000000 -25.081896 0.000000
vt 0.000000 -26.416040 0.000000
vt 0.000000 -27.750183 0.000000
vt 0.000000 -29.084328 0.000000
vt 0.000000 -30.418472 0.000000
vt 30.000000 -30.418472 0.000000
vt 30.000000 -29.084328 0.000000
vt 30.000000 -27.750183 0.000000
vt 30.000000 -26.416040 0.000000
vt 30.000000 -25.081896 0.000000
vt 30.000000 -23.747753 0.000000
vt 30.000000 -22.413610 0.000000
vt 30.000000 -21.079468 0.000000
vt 30.000000 -19.745323 0.000000
vt 30.000000 -18.411180 0.000000
vt 30.000000 -17.077036 0.000000
vt 30.000000 -15.742892 0.000000
vt 30.000000 -14.408749 0.000000
vt 30.000000 -13.074606 0.000000
vt 30.000000 -11.740462 0.000000
vt 30.000000 -10.406320 0.000000
vt 30.000000 -9.072176 0.000000
vt 30.000000 -7.738032 0.000000
vt 30.000000 -6.403888 0.000000
vt 30.000000 -5.069745 0.000000
vt 0.000000 0.000000 0.000000
vt 8.000000 0.000000 0.000000
vt 8.000000 30.000000 0.000000
vt 0.000000 30.000000 0.000000
vt 0.317500 0.000000 0.000000
vt 0.317500 30.000000 0.000000
vt 0.317500 30.317499 0.000000
vt 0.000000 30.317499 0.000000
vt 0.000000 -0.317500 0.000000
vt 0.317500 -0.317500 0.000000
vt 8.000000 -0.317500 0.000000
vt 8.000000 30.317499 0.000000
vt 0.000000 30.317499 0.000000
vt 0.000000 -0.317500 0.000000
vt 0.317500 26.179939 0.000000
vt -30.317499 26.179939 0.000000
vt -30.317499 24.802048 0.000000
vt -30.317499 23.424156 0.000000
vt -30.317499 22.046263 0.000000
vt -30.317499 20.668373 0.000000
vt -30.317499 19.290482 0.000000
vt -30.317499 17.912590 0.000000
vt -30.317499 16.534698 0.000000
vt -30.317499 15.156807 0.000000
vt -30.317499 13.778915 0.000000
vt -30.317499 12.401024 0.000000
vt -30.317499 11.023131 0.000000
vt -30.317499 9.645241 0.000000
vt -30.317499 8.267349 0.000000
vt -30.317499 6.889458 0.000000
vt -30.317499 5.511566 0.000000
vt -30.317499 4.133675 0.000000
vt -30.317499 2.755783 0.000000
vt -30.317499 1.377891 0.000000
vt -30.317499 0.000000 0.000000
vt 0.317500 0.000000 0.000000
vt 0.317500 1.377891 0.000000
vt 0.317500 2.755783 0.000000
vt 0.317500 4.133675 0.000000
vt 0.317500 5.511566 0.000000
vt 0.317500 6.889458 0.000000
vt 0.317500 8.267349 0.000000
vt 0.317500 9.645241 0.000000
vt 0.317500 11.023131 0.000000
vt 0.317500 12.401024 0.000000
vt 0.317500 13.778915 0.000000
vt 0.317500 15.156807 0.000000
vt 0.317500 16.534698 0.000000
vt 0.317500 17.912590 0.000000
vt 0.317500 19.290482 0.000000
vt 0.317500 20.668373 0.000000
vt 0.317500 22.046263 0.000000
vt 0.317500 23.424156 0.000000
vt 0.317500 24.802048 0.000000
vt 20.000000 -0.317500 0.000000
vt 20.000000 30.317499 0.000000
vt 0.000000 30.317499 0.000000
vt 0.000000 -0.317500 0.000000
vn 0.000000 0.063023 0.077641
vn 0.000000 0.063023 0.077641
vn 0.000000 0.063023 0.077641
vn 0.000000 0.063023 0.077641
vn -0.100000 0.000000 0.000000
vn -0.100000 0.000000 0.000000
vn -0.100000 0.000000 0.000000
vn -0.100000 0.000000 0.000000
vn -0.100000 0.000000 0.000000
vn -0.100000 0.000000 0.000000
vn -0.100000 0.000000 0.000000
vn -0.100000 0.000000 0.000000
vn -0.100000 0.000000 0.000000
vn -0.100000 0.000000 0.000000
vn -0.100000 0.000000 0.000000
vn -0.100000 0.000000 0.000000
vn -0.100000 0.000000 0.000000
vn -0.100000 0.000000 0.000000
vn -0.100000 0.000000 0.000000
vn -0.100000 0.000000 0.000000
vn -0.100000 0.000000 0.000000
vn -0.100000 0.000000 0.000000
vn -0.100000 0.000000 0.000000
vn -0.100000 0.000000 0.000000
vn -0.100000 0.000000 0.000000
vn -0.100000 0.000000 0.000000
vn -0.100000 0.000000 0.000000
vn -0.100000 0.000000 0.000000
vn 0.100000 0.000000 0.000000
vn 0.100000 0.000000 0.000000
vn 0.100000 0.000000 0.000000
vn 0.100000 0.000000 0.000000
vn 0.100000 0.000000 0.000000
vn 0.100000 0.000000 0.000000
vn 0.100000 0.000000 0.000000
vn 0.100000 0.000000 0.000000
vn 0.100000 0.000000 0.000000
vn 0.100000 0.000000 0.000000
vn 0.100000 0.000000 0.000000
vn 0.100000 0.000000 0.000000
vn 0.100000 0.000000 0.000000
vn 0.100000 0.000000 0.000000
vn 0.100000 0.000000 0.000000
vn 0.100000 0.000000 0.000000
vn 0.100000 0.000000 0.000000
vn 0.100000 0.000000 0.000000
vn 0.100000 0.000000 0.000000
vn 0.100000 0.000000 0.000000
vn 0.100000 0.000000 0.000000
vn 0.100000 0.000000 0.000000
vn 0.000000 0.063023 0.077641
vn 0.000000 0.063023 0.077641
vn 0.000000 0.063023 0.077641
vn 0.000000 0.063023 0.077641
vn 0.100000 0.000000 0.000000
vn 0.100000 0.000000 0.000000
vn 0.100000 0.000000 0.000000
vn 0.100000 0.000000 0.000000
vn 0.100000 0.000000 0.000000
vn 0.100000 0.000000 0.000000
vn 0.100000 0.000000 0.000000
vn 0.100000 0.000000 0.000000
vn 0.100000 0.000000 0.000000
vn 0.100000 0.000000 0.000000
vn 0.100000 0.000000 0.000000
vn 0.100000 0.000000 0.000000
vn 0.100000 0.000000 0.000000
vn 0.100000 0.000000 0.000000
vn 0.100000 0.000000 0.000000
vn 0.100000 0.000000 0.000000
vn 0.100000 0.000000 0.000000
vn 0.100000 0.000000 0.000000
vn 0.100000 0.000000 0.000000
vn 0.100000 0.000000 0.000000
vn 0.100000 0.000000 0.000000
vn 0.100000 0.000000 0.000000
vn 0.100000 0.000000 0.000000
vn 0.100000 0.000000 0.000000
vn -0.100000 0.000000 0.000000
vn -0.100000 0.000000 0.000000
vn -0.100000 0.000000 0.000000
vn -0.100000 0.000000 0.000000
vn -0.100000 0.000000 0.000000
vn -0.100000 0.000000 0.000000
vn -0.100000 0.000000 0.000000
vn -0.100000 0.000000 0.000000
vn -0.100000 0.000000 0.000000
vn -0.100000 0.000000 0.000000
vn -0.100000 0.000000 0.000000
vn -0.100000 0.000000 0.000000
vn -0.100000 0.000000 0.000000
vn -0.100000 0.000000 0.000000
vn -0.100000 0.000000 0.000000
vn -0.100000 0.000000 0.000000
vn -0.100000 0.000000 0.000000
vn -0.100000 0.000000 0.000000
vn -0.100000 0.000000 0.000000
vn -0.100000 0.000000 0.000000
vn -0.100000 0.000000 0.000000
vn -0.100000 0.000000 0.000000
vn 0.000000 0.000000 0.100000
vn 0.000000 0.000000 0.100000
vn 0.000000 0.000000 0.100000
vn 0.000000 0.000000 0.100000
vn 0.000000 0.000000 0.100000
vn 0.000000 0.000000 0.100000
vn 0.000000 0.100000 0.000000
vn 0.000000 0.100000 0.000000
vn 0.000000 0.100000 0.000000
vn 0.000000 0.100000 0.000000
vn 0.000000 -0.086603 0.050000
vn 0.000000 -0.078914 0.061421
vn 0.000000 -0.069730 0.071678
vn 0.000000 -0.059224 0.080577
vn 0.000000 -0.047595 0.087947
vn 0.000000 -0.035064 0.093651
vn 0.000000 -0.021868 0.097580
vn 0.000000 -0.008258 0.099658
vn 0.000000 0.005509 0.099848
vn 0.000000 0.019171 0.098145
vn 0.000000 0.032470 0.094582
vn 0.000000 0.045153 0.089225
vn 0.000000 0.056981 0.082178
vn 0.000000 0.067728 0.073572
vn 0.000000 0.077192 0.063572
vn 0.000000 0.085192 0.052367
vn 0.000000 0.091577 0.040170
vn 0.000000 0.096227 0.027210
vn 0.000000 0.099052 0.013735
vn 0.000000 0.100000 0.000000
vn 0.000000 0.100000 0.000000
vn 0.000000 0.099052 0.013735
vn 0.000000 0.096227 0.027210
vn 0.000000 0.091577 0.040170
vn 0.000000 0.085192 0.052367
vn 0.000000 0.077192 0.063572
vn 0.000000 0.067728 0.073572
vn 0.000000 0.056981 0.082178
vn 0.000000 0.045153 0.089225
vn 0.000000 0.032470 0.094582
vn 0.000000 0.019171 0.098145
vn 0.000000 0.005509 0.099848
vn 0.000000 -0.008258 0.099658
vn 0.000000 -0.021868 0.097580
vn 0.000000 -0.035064 0.093651
vn 0.000000 -0.047595 0.087947
vn 0.000000 -0.059224 0.080577
vn 0.000000 -0.069730 0.071678
vn 0.000000 -0.078914 0.061421
vn 0.000000 -0.086603 0.050000
vn 0.000000 -0.086603 0.050000
vn 0.000000 -0.086603 0.050000
vn 0.000000 -0.086603 0.050000
vn 0.000000 -0.086603 0.050000
vn 0.000000 0.050000 0.086603
vn 0.000000 0.050000 0.086603
vn 0.000000 0.050000 0.086603
vn 0.000000 0.050000 0.086603
vn 0.000000 0.050000 0.086603
vn 0.000000 0.050000 0.086603
vn 0.000000 0.086603 -0.050000
vn 0.000000 0.086603 -0.050000
vn 0.000000 0.086603 -0.050000
vn 0.000000 0.086603 -0.050000
vn 0.000000 0.086603 -0.050000
vn 0.000000 0.086603 -0.050000
vn 0.000000 0.078914 -0.061421
vn 0.000000 0.069730 -0.071678
vn 0.000000 0.059224 -0.080577
vn 0.000000 0.047595 -0.087947
vn 0.000000 0.035064 -0.093651
vn 0.000000 0.021868 -0.097580
vn 0.000000 0.008258 -0.099658
vn 0.000000 -0.005509 -0.099848
vn 0.000000 -0.019171 -0.098145
vn 0.000000 -0.032470 -0.094582
vn 0.000000 -0.045153 -0.089225
vn 0.000000 -0.056981 -0.082178
vn 0.000000 -0.067728 -0.073572
vn 0.000000 -0.077192 -0.063572
vn 0.000000 -0.085192 -0.052367
vn 0.000000 -0.091577 -0.040170
vn 0.000000 -0.096227 -0.027210
vn 0.000000 -0.099052 -0.013735
vn 0.000000 -0.100000 0.000000
vn 0.000000 -0.100000 0.000000
vn 0.000000 -0.099052 -0.013735
vn 0.000000 -0.096227 -0.027210
vn 0.000000 -0.091577 -0.040170
vn 0.000000 -0.085192 -0.052367
vn 0.000000 -0.077192 -0.063572
vn 0.000000 -0.067728 -0.073572
vn 0.000000 -0.056981 -0.082178
vn 0.000000 -0.045153 -0.089225
vn 0.000000 -0.032470 -0.094582
vn 0.000000 -0.019171 -0.098145
vn 0.000000 -0.005509 -0.099848
vn 0.000000 0.008258 -0.099658
vn 0.000000 0.021868 -0.097580
vn 0.000000 0.035064 -0.093651
vn 0.000000 0.047595 -0.087947
vn 0.000000 0.059224 -0.080577
vn 0.000000 0.069730 -0.071678
vn 0.000000 0.078914 -0.061421
vn 0.000000 -0.100000 0.000000
vn 0.000000 -0.100000 0.000000
vn 0.000000 -0.100000 0.000000
vn 0.000000 -0.100000 0.000000
usemtl 191,191,191
f 26/1/1 46/2/2 4/4/4
f 4/4/4 46/2/2 23/3/3
f 2/5/5 4/6/6 1/28/28
f 1/28/28 4/6/6 23/7/7
f 1/28/28 23/7/7 22/9/9
f 22/9/9 23/7/7 24/8/8
f 21/10/10 20/11/11 22/9/9
f 22/9/9 20/11/11 19/12/12
f 22/9/9 19/12/12 18/13/13
f 18/13/13 17/14/14 22/9/9
f 22/9/9 17/14/14 1/28/28
f 17/14/14 16/15/15 1/28/28
f 1/28/28 16/15/15 15/16/16
f 1/28/28 15/16/16 14/17/17
f 14/17/17 13/18/18 1/28/28
f 1/28/28 13/18/18 12/19/19
f 1/28/28 12/19/19 11/20/20
f 11/20/20 10/21/21 1/28/28
f 1/28/28 10/21/21 9/22/22
f 1/28/28 9/22/22 8/23/23
f 8/23/23 7/24/24 1/28/28
f 1/28/28 7/24/24 6/25/25
f 1/28/28 6/25/25 5/26/26
f 5/26/26 3/27/27 1/28/28
f 46/30/30 25/32/32 45/29/29
f 45/29/29 25/32/32 40/46/46
f 45/29/29 40/46/46 41/47/47
f 46/30/30 26/31/31 25/32/32
f 27/33/33 28/34/34 25/32/32
f 25/32/32 28/34/34 29/35/35
f 25/32/32 29/35/35 30/36/36
f 30/36/36 31/37/37 25/32/32
f 25/32/32 31/37/37 32/38/38
f 25/32/32 32/38/38 33/39/39
f 33/39/39 34/40/40 25/32/32
f 25/32/32 34/40/40 35/41/41
f 25/32/32 35/41/41 36/42/42
f 36/42/42 37/43/43 25/32/32
f 25/32/32 37/43/43 38/44/44
f 25/32/32 38/44/44 39/45/45
f 39/45/45 40/46/46 25/32/32
f 41/47/47 42/48/48 45/29/29
f 45/29/29 42/48/48 43/49/49
f 45/29/29 43/49/49 44/50/50
f 68/51/51 48/52/52 91/54/54
f 91/54/54 48/52/52 72/53/53
f 70/55/55 69/56/56 72/78/78
f 72/78/78 69/56/56 91/77/77
f 91/77/77 69/56/56 90/75/75
f 91/77/77 90/75/75 92/76/76
f 71/57/57 73/58/58 69/56/56
f 69/56/56 73/58/58 74/59/59
f 69/56/56 74/59/59 75/60/60
f 75/60/60 76/61/61 69/56/56
f 69/56/56 76/61/61 77/62/62
f 69/56/56 77/62/62 78/63/63
f 78/63/63 79/64/64 69/56/56
f 69/56/56 79/64/64 80/65/65
f 69/56/56 80/65/65 81/66/66
f 81/66/66 82/67/67 69/56/56
f 69/56/56 82/67/67 83/68/68
f 69/56/56 83/68/68 84/69/69
f 84/69/69 85/70/70 69/56/56
f 69/56/56 85/70/70 90/75/75
f 85/70/70 86/71/71 90/75/75
f 90/75/75 86/71/71 87/72/72
f 90/75/75 87/72/72 88/73/73
f 88/73/73 89/74/74 90/75/75
f 48/80/80 68/81/81 47/79/79
f 47/79/79 68/81/81 67/82/82
f 47/79/79 67/82/82 62/87/87
f 62/87/87 67/82/82 63/86/86
f 63/86/86 67/82/82 64/85/85
f 64/85/85 67/82/82 65/84/84
f 65/84/84 67/82/82 66/83/83
f 62/87/87 61/88/88 47/79/79
f 47/79/79 61/88/88 60/89/89
f 47/79/79 60/89/89 59/90/90
f 59/90/90 58/91/91 47/79/79
f 47/79/79 58/91/91 57/92/92
f 47/79/79 57/92/92 56/93/93
f 56/93/93 55/94/94 47/79/79
f 47/79/79 55/94/94 54/95/95
f 47/79/79 54/95/95 53/96/96
f 53/96/96 52/97/97 47/79/79
f 47/79/79 52/97/97 51/98/98
f 47/79/79 51/98/98 50/99/99
f 50/99/99 49/100/100 47/79/79
f 70/102/102 48/104/104 2/101/101
f 2/101/101 48/104/104 26/105/105
f 2/101/101 26/105/105 4/106/106
f 70/102/102 72/103/103 48/104/104
f 25/107/107 26/108/108 47/110/110
f 47/110/110 26/108/108 48/109/109
f 45/111/111 44/112/112 67/150/150
f 67/150/150 44/112/112 66/149/149
f 66/149/149 44/112/112 43/113/113
f 66/149/149 43/113/113 65/148/148
f 65/148/148 43/113/113 42/114/114
f 65/148/148 42/114/114 64/147/147
f 64/147/147 42/114/114 41/115/115
f 64/147/147 41/115/115 63/146/146
f 63/146/146 41/115/115 40/116/116
f 63/146/146 40/116/116 62/145/145
f 62/145/145 40/116/116 39/117/117
f 62/145/145 39/117/117 61/144/144
f 61/144/144 39/117/117 38/118/118
f 61/144/144 38/118/118 60/143/143
f 60/143/143 38/118/118 37/119/119
f 60/143/143 37/119/119 59/142/142
f 59/142/142 37/119/119 36/120/120
f 59/142/142 36/120/120 58/141/141
f 58/141/141 36/120/120 35/121/121
f 58/141/141 35/121/121 57/140/140
f 57/140/140 35/121/121 34/122/122
f 57/140/140 34/122/122 56/139/139
f 56/139/139 34/122/122 33/123/123
f 56/139/139 33/123/123 55/138/138
f 55/138/138 33/123/123 32/124/124
f 55/138/138 32/124/124 54/137/137
f 54/137/137 32/124/124 31/125/125
f 54/137/137 31/125/125 53/136/136
f 53/136/136 31/125/125 30/126/126
f 53/136/136 30/126/126 52/135/135
f 52/135/135 30/126/126 29/127/127
f 52/135/135 29/127/127 51/134/134
f 51/134/134 29/127/127 28/128/128
f 51/134/134 28/128/128 50/133/133
f 50/133/133 28/128/128 27/129/129
f 50/133/133 27/129/129 49/132/132
f 49/132/132 27/129/129 47/131/131
f 47/131/131 27/129/129 25/130/130
f 46/151/151 45/152/152 68/154/154
f 68/154/154 45/152/152 67/153/153
f 23/160/160 46/155/155 24/159/159
f 24/159/159 46/155/155 68/156/156
f 24/159/159 68/156/156 92/158/158
f 92/158/158 68/156/156 91/157/157
f 92/162/162 90/163/163 24/161/161
f 24/161/161 90/163/163 22/164/164
f 90/166/166 89/167/167 22/165/165
f 22/165/165 89/167/167 21/204/204
f 21/204/204 89/167/167 88/168/168
f 21/204/204 88/168/168 20/203/203
f 20/203/203 88/168/168 87/169/169
f 20/203/203 87/169/169 19/202/202
f 19/202/202 87/169/169 86/170/170
f 19/202/202 86/170/170 18/201/201
f 18/201/201 86/170/170 85/171/171
f 18/201/201 85/171/171 17/200/200
f 17/200/200 85/171/171 84/172/172
f 17/200/200 84/172/172 16/199/199
f 16/199/199 84/172/172 83/173/173
f 16/199/199 83/173/173 15/198/198
f 15/198/198 83/173/173 82/174/174
f 15/198/198 82/174/174 14/197/197
f 14/197/197 82/174/174 81/175/175
f 14/197/197 81/175/175 13/196/196
f 13/196/196 81/175/175 80/176/176
f 13/196/196 80/176/176 12/195/195
f 12/195/195 80/176/176 79/177/177
f 12/195/195 79/177/177 11/194/194
f 11/194/194 79/177/177 78/178/178
f 11/194/194 78/178/178 10/193/193
f 10/193/193 78/178/178 77/179/179
f 10/193/193 77/179/179 9/192/192
f 9/192/192 77/179/179 76/180/180
f 9/192/192 76/180/180 8/191/191
f 8/191/191 76/180/180 75/181/181
f 8/191/191 75/181/181 7/190/190
f 7/190/190 75/181/181 74/182/182
f 7/190/190 74/182/182 6/189/189
f 6/189/189 74/182/182 73/183/183
f 6/189/189 73/183/183 5/188/188
f 5/188/188 73/183/183 71/184/184
f 5/188/188 71/184/184 3/187/187
f 3/187/187 71/184/184 1/186/186
f 1/186/186 71/184/184 69/185/185
f 69/206/206 70/207/207 1/205/205
f 1/205/205 70/207/207 2/208/208

# 92 vertices
# 208 texture params
# 208 normals
# 180 facets

# 1 groups
